<svg viewBox="0 0 189.846 35" xmlns="http://www.w3.org/2000/svg"><g fill="#fff"><path d="m7.59 35h5.023a18.957 18.957 0 0 0 13.3-5.042 17.089 17.089 0 0 0 5.187-12.468v-.09c.023-10.083-7.767-17.4-18.487-17.4h-12.613v28.83h3.04v-25.79h9.574c8.973 0 15.471 6.043 15.471 14.379v.091c0 8.391-6.516 14.47-15.471 14.47h-1.694v-12.414h6.9v6.261h3.294v-17.345h-3.295v7.754h-6.9v-7.773h-3.311z"/><g transform="translate(42.738 11.821)"><path d="m0 16.564v-16.564h3.476a12.355 12.355 0 0 1 3.929.484 7.791 7.791 0 0 1 2.811 1.632 7.878 7.878 0 0 1 2.569 6.136 7.815 7.815 0 0 1 -2.66 6.166 7.921 7.921 0 0 1 -2.81 1.632 12.946 12.946 0 0 1 -3.9.453h-3.415zm2.509-2.358h1.118a9.339 9.339 0 0 0 2.811-.363 5.49 5.49 0 0 0 2.025-1.179 5.722 5.722 0 0 0 1.814-4.383 5.743 5.743 0 0 0 -1.814-4.412 6.919 6.919 0 0 0 -4.836-1.511h-1.118z"/><path d="m53.2 24.71a5.227 5.227 0 0 1 1.6-3.839 5.734 5.734 0 0 1 7.919.03 5.333 5.333 0 0 1 1.6 3.929 5.245 5.245 0 0 1 -1.632 3.929 5.494 5.494 0 0 1 -3.99 1.572 5.333 5.333 0 0 1 -3.929-1.6 5.64 5.64 0 0 1 -1.568-4.021m2.478.06a3.477 3.477 0 0 0 .846 2.478 3.248 3.248 0 0 0 4.534.03 3.4 3.4 0 0 0 .846-2.448 3.45 3.45 0 0 0 -.846-2.448 3.249 3.249 0 0 0 -4.5 0 3.24 3.24 0 0 0 -.877 2.388" transform="translate(-37.12 -13.466)"/><path d="m98.82 18.037 2.72 5.954 2.96-6.891 2.962 6.891 2.69-5.954h2.72l-5.472 11.214-2.9-6.71-2.962 6.71-5.438-11.214z" transform="translate(-67.053 -11.931)"/><path d="m160.6 19.5h2.418v.967a3.914 3.914 0 0 1 2.841-1.269 3.665 3.665 0 0 1 2.841 1.149 4.8 4.8 0 0 1 .877 3.174v6.409h-2.418v-5.8a3.819 3.819 0 0 0 -.423-2.116 1.733 1.733 0 0 0 -1.511-.6 1.847 1.847 0 0 0 -1.693.786 5.361 5.361 0 0 0 -.484 2.72v5.01h-2.418v-10.43z" transform="translate(-112.058 -13.397)"/><path d="m212.4 25.445h-7.5a3.114 3.114 0 0 0 .846 2.055 2.483 2.483 0 0 0 1.9.756 2.524 2.524 0 0 0 1.481-.423 6.293 6.293 0 0 0 1.33-1.572l2.043 1.149a7.13 7.13 0 0 1 -1 1.39 5.264 5.264 0 0 1 -1.118.937 4.932 4.932 0 0 1 -1.3.544 5.919 5.919 0 0 1 -1.511.181 4.894 4.894 0 0 1 -3.748-1.511 5.675 5.675 0 0 1 -1.421-4.02 5.834 5.834 0 0 1 1.36-4.02 4.785 4.785 0 0 1 3.657-1.511 4.675 4.675 0 0 1 3.657 1.481 5.837 5.837 0 0 1 1.33 4.05zm-2.479-1.995a2.531 2.531 0 0 0 -3.234-1.814 1.976 1.976 0 0 0 -.7.393 2.6 2.6 0 0 0 -.544.6 2.444 2.444 0 0 0 -.332.816z" transform="translate(-141.223 -13.536)"/><path d="m277.909 6.468h7.133v-6.468h2.509v16.564h-2.509v-7.738h-7.133v7.738h-2.509v-16.564h2.509z" transform="translate(-192.159)"/><path d="m329.2 24.71a5.141 5.141 0 0 1 1.632-3.839 5.734 5.734 0 0 1 7.919.03 5.333 5.333 0 0 1 1.6 3.929 5.245 5.245 0 0 1 -1.632 3.929 5.494 5.494 0 0 1 -3.99 1.572 5.333 5.333 0 0 1 -3.929-1.6 5.422 5.422 0 0 1 -1.6-4.02m2.448.06a3.477 3.477 0 0 0 .846 2.478 3.248 3.248 0 0 0 4.534.03 3.4 3.4 0 0 0 .846-2.448 3.45 3.45 0 0 0 -.846-2.448 2.982 2.982 0 0 0 -2.267-.907 2.915 2.915 0 0 0 -2.237.907 3.367 3.367 0 0 0 -.877 2.388" transform="translate(-229.697 -13.466)"/><path d="m380.658 20.2v5.985c0 1.723.7 2.6 2.055 2.6s2.055-.877 2.055-2.6v-5.985h2.418v6.045a6.639 6.639 0 0 1 -.3 2.176 3.984 3.984 0 0 1 -1.028 1.481 4.623 4.623 0 0 1 -3.113 1.058 4.543 4.543 0 0 1 -3.085-1.06 3.548 3.548 0 0 1 -1.058-1.481 5.746 5.746 0 0 1 -.3-2.176v-6.043z" transform="translate(-263.957 -14.094)"/><path d="m425.7 21.216-1.995 1.058c-.3-.635-.7-.967-1.179-.967a.8.8 0 0 0 -.574.212.774.774 0 0 0 -.242.574c0 .393.453.786 1.39 1.179a8.189 8.189 0 0 1 2.569 1.511 2.54 2.54 0 0 1 .665 1.874 3.307 3.307 0 0 1 -1.118 2.539 3.846 3.846 0 0 1 -2.6.967 3.775 3.775 0 0 1 -3.718-2.569l2.055-.967a4.121 4.121 0 0 0 .665.967 1.484 1.484 0 0 0 1.058.393c.816 0 1.209-.363 1.209-1.118 0-.423-.3-.816-.937-1.209l-.725-.363-.725-.363a4.444 4.444 0 0 1 -1.481-1.028 2.53 2.53 0 0 1 -.544-1.693 2.879 2.879 0 0 1 .937-2.237 3.24 3.24 0 0 1 2.327-.877 3.309 3.309 0 0 1 2.962 2.116" transform="translate(-292.285 -13.327)"/><path d="m463.3 25.445h-7.5a3.114 3.114 0 0 0 .846 2.055 2.483 2.483 0 0 0 1.9.756 2.524 2.524 0 0 0 1.481-.423 6.293 6.293 0 0 0 1.33-1.572l2.043 1.149a7.128 7.128 0 0 1 -1 1.39 5.263 5.263 0 0 1 -1.118.937 4.932 4.932 0 0 1 -1.3.544 5.919 5.919 0 0 1 -1.511.181 4.894 4.894 0 0 1 -3.748-1.511 5.675 5.675 0 0 1 -1.421-4.02 5.834 5.834 0 0 1 1.36-4.02 4.785 4.785 0 0 1 3.657-1.511 4.675 4.675 0 0 1 3.657 1.481 5.837 5.837 0 0 1 1.33 4.05zm-2.478-1.995a2.531 2.531 0 0 0 -3.234-1.814 1.976 1.976 0 0 0 -.7.393 2.6 2.6 0 0 0 -.544.6 2.444 2.444 0 0 0 -.332.816z" transform="translate(-316.288 -13.536)"/></g></g></svg>